<svg xmlns="http://www.w3.org/2000/svg" viewBox="0 0 376.78 284.73" width="376.78" height="284.73"><defs><style>.cls-1{fill:#fff;}</style></defs><title>Asset 2</title><g id="Layer_2" data-name="Layer 2"><g id="Layer_1-2" data-name="Layer 1"><path class="cls-1" d="M177,9.93V25.86c-9.59,3.44-17.83,8.91-23.65,17.45-12,17.59-8.75,40.31,7.68,54.43,18.53,15.91,47.88,14.69,65-2.7,20.36-20.65,13.82-54.28-13-66.67-2-.9-3.94-1.74-5.83-2.58V10.16c37.27,7.35,62.59,50.42,37.82,86.93-14.49,21.36-35.95,29.74-61.23,26.69-23.71-2.86-41.29-15.22-50.61-37.73-10.51-25.39.84-55.22,26-69.3A57.41,57.41,0,0,1,177,9.93Z"/><path class="cls-1" d="M192.11,195.81l-3.55,9.11c.79,1.35,2.18.7,4,1.61-7.8,4.24-9.22,12-12.17,19H140.54V137c5.11,5.95,8.64,11.42,8.36,19.63-.7,20.12-.23,40.29-.23,60.8h23.5l16.2-35.31L186.94,177h10.69L216,232.07l.69-.19v-72.8h-16a24.2,24.2,0,0,1-4.67-7.43h48l-3.91,7.17H225.46V284.48l-1,.25Z"/><path class="cls-1" d="M50.17,239.54,28.68,183.76l-19-1.08-9.66-7H34.8L50,215.35l26.69-74.7,12.91,37.79h14.06c1,2.15.41,4.13.54,6-11.77,8.24-14.88,14.24-11.84,22.79a19.14,19.14,0,0,0,19.23,12.32c8.7-.7,15.77-6.35,17.5-14C131,197.09,127,190.22,116.94,185a9.64,9.64,0,0,1,0-6.12c9.4,1.32,17.82,9.67,19.31,19a23.89,23.89,0,0,1-13.61,25.43,27.27,27.27,0,0,1-32.07-5.82c-7.85-8.57-8.26-18.44-1-30.64-3-.08-4-2-4.9-4.44-2.47-6.52-5.19-13-8.31-20.67Z"/><path class="cls-1" d="M251.74,136.78c6.57,8.15,10.54,16.1,10,26.69-.95,17.42-.26,34.92-.26,52.79h27.33v9.12h-37Z"/><path class="cls-1" d="M344,152.56l-4.06,7.24H324.37V226c-3.34,1.32-6.43.57-10,.69V160H300.25a26.43,26.43,0,0,1-4.32-7.44Z"/><path class="cls-1" d="M192.46,106.26,176,63.65l-14.79-1.1L154,57.28h26.61l11.67,30.26,20.42-57.1,10,29.1h9.79c-4.42,5.76-5,6-12.45,5.67L212.5,46.79Z"/><path class="cls-1" d="M333.76,197c4-.44,7.28.42,10.91.9l10.59,17.56,10.5-17.4a38.06,38.06,0,0,1,11-1.12c-4.82,8.12-9.35,16-14.15,23.7a16.83,16.83,0,0,0-2.78,9.81c.22,7.49.07,15,.07,22.81l-9.14,7.93c0-11.07-.07-21.17,0-31.27a14.25,14.25,0,0,0-2.19-8C343.69,213.85,338.94,205.69,333.76,197Z"/><path class="cls-1" d="M196.8,36.16H186.59V0H196.8Z"/><path class="cls-1" d="M296,188.5l8.6,5.89v21.13L296,223Z"/><path class="cls-1" d="M235,223.18V188.37l8.94,6.06v21.05Z"/><path class="cls-1" d="M108.29,174.58c1.58-.45,2.83-.64,4.16.37v13.73c-1.15,1.33-2.53,1-4.16.48Z"/></g></g></svg>